<svg width="21" height="20" viewBox="0 0 21 20" fill="none" xmlns="http://www.w3.org/2000/svg">
<path d="M12 1.31274C12 0.586629 11.3297 0 10.5 0C9.67031 0 9 0.586629 9 1.31274V9.95629L7.05938 8.25793C6.47344 7.74514 5.52188 7.74514 4.93594 8.25793C4.35 8.77072 4.35 9.60349 4.93594 10.1163L9.43594 14.0545C10.0219 14.5673 10.9734 14.5673 11.5594 14.0545L16.0594 10.1163C16.6453 9.60349 16.6453 8.77072 16.0594 8.25793C15.4734 7.74514 14.5219 7.74514 13.9359 8.25793L12 9.95629V1.31274ZM3 13.1274C1.34531 13.1274 0 14.3047 0 15.7528V17.0656C0 18.5137 1.34531 19.691 3 19.691H18C19.6547 19.691 21 18.5137 21 17.0656V15.7528C21 14.3047 19.6547 13.1274 18 13.1274H15.8016L13.1484 15.4493C11.6859 16.7292 9.30938 16.7292 7.84688 15.4493L5.19844 13.1274H3ZM17.25 15.4247C17.8734 15.4247 18.375 15.8636 18.375 16.4092C18.375 16.9548 17.8734 17.3938 17.25 17.3938C16.6266 17.3938 16.125 16.9548 16.125 16.4092C16.125 15.8636 16.6266 15.4247 17.25 15.4247Z" fill="black"/>
</svg>
