<svg width="42" height="42" viewBox="0 0 42 42" fill="none" xmlns="http://www.w3.org/2000/svg">
<g filter="url(#filter0_d_1280_533)">
<path d="M13.5 15.125V24.5M13.5 9.5V9.51875M21 24.5V15.125M28.5 24.5V18.875C28.5 17.8804 28.1049 16.9266 27.4016 16.2234C26.6984 15.5201 25.7446 15.125 24.75 15.125C23.7554 15.125 22.8016 15.5201 22.0984 16.2234C21.3951 16.9266 21 17.8804 21 18.875M6 5.75C6 4.75544 6.39509 3.80161 7.09835 3.09835C7.80161 2.39509 8.75544 2 9.75 2H32.25C33.2446 2 34.1984 2.39509 34.9016 3.09835C35.6049 3.80161 36 4.75544 36 5.75V28.25C36 29.2446 35.6049 30.1984 34.9016 30.9016C34.1984 31.6049 33.2446 32 32.25 32H9.75C8.75544 32 7.80161 31.6049 7.09835 30.9016C6.39509 30.1984 6 29.2446 6 28.25V5.75Z" stroke="white" stroke-width="3" stroke-linecap="round" stroke-linejoin="round" shape-rendering="crispEdges"/>
</g>
<defs>
<filter id="filter0_d_1280_533" x="0.5" y="0.5" width="41" height="41" filterUnits="userSpaceOnUse" color-interpolation-filters="sRGB">
<feFlood flood-opacity="0" result="BackgroundImageFix"/>
<feColorMatrix in="SourceAlpha" type="matrix" values="0 0 0 0 0 0 0 0 0 0 0 0 0 0 0 0 0 0 127 0" result="hardAlpha"/>
<feOffset dy="4"/>
<feGaussianBlur stdDeviation="2"/>
<feComposite in2="hardAlpha" operator="out"/>
<feColorMatrix type="matrix" values="0 0 0 0 0 0 0 0 0 0 0 0 0 0 0 0 0 0 0.25 0"/>
<feBlend mode="normal" in2="BackgroundImageFix" result="effect1_dropShadow_1280_533"/>
<feBlend mode="normal" in="SourceGraphic" in2="effect1_dropShadow_1280_533" result="shape"/>
</filter>
</defs>
</svg>
