<svg width="34" height="34" viewBox="0 0 34 34" fill="none" xmlns="http://www.w3.org/2000/svg">
<path d="M6.73684 13.6663H13.0526M9.89474 13.6663V20.3331M10.059 25.3332C10.8011 29.1233 13.9795 32 17.7895 32C19.8833 32 21.8914 31.122 23.3719 29.5592C24.8525 27.9963 25.6842 25.8767 25.6842 23.6665V11.9996M25.6842 11.9996H17.7895M25.6842 11.9996H32V20.3331C32 22.1012 31.3346 23.797 30.1501 25.0472C28.9657 26.2975 27.3593 26.9999 25.6842 26.9999M17.794 11.7162C18.807 12.0928 19.9111 12.0949 20.9253 11.7221C21.9395 11.3494 22.8036 10.6239 23.3759 9.66465C23.9482 8.70541 24.1947 7.56936 24.075 6.44281C23.9553 5.31627 23.4765 4.26609 22.7171 3.4645C21.9577 2.66292 20.9628 2.15751 19.8956 2.03116C18.8284 1.90481 17.7521 2.16502 16.8434 2.76912C15.9347 3.37322 15.2474 4.28534 14.8942 5.35591C14.5411 6.42648 14.5431 7.59195 14.8998 8.66118M22.258 10.9329C22.7898 11.4367 23.4411 11.7788 24.1425 11.9225C24.844 12.0663 25.5692 12.0063 26.241 11.7491C26.9127 11.4919 27.5057 11.0471 27.9566 10.462C28.4076 9.87697 28.6997 9.17368 28.8018 8.42715C28.9038 7.68062 28.812 6.91885 28.536 6.2231C28.2601 5.52735 27.8104 4.9237 27.235 4.47655C26.6596 4.0294 25.9799 3.75551 25.2686 3.6841C24.5573 3.61269 23.8409 3.74643 23.1959 4.07106M2 8.66619H17.7895V25.3332H2V8.66619Z" stroke="white" stroke-width="3" stroke-linecap="round" stroke-linejoin="round"/>
</svg>
