<svg width="313" height="177" viewBox="0 0 313 177" fill="none" xmlns="http://www.w3.org/2000/svg">
<rect width="313" height="177" fill="black"/>
<path d="M199.325 54V104.989C205.577 105.282 211.813 105.636 218.031 106.053V116.864C208.169 116.202 198.296 115.7 188.417 115.358V54H199.325ZM286 54.0061L271.797 87.1299L285.996 123.991L285.981 123.997C281.841 123.405 277.697 122.841 273.549 122.307L265.575 101.618L257.525 120.386C253.71 119.962 249.89 119.562 246.061 119.185L259.907 86.9081L247.227 54.0066H259.026L266.126 72.4193L274.02 54.0061H286ZM150.983 114.822V54.0056H181.43V64.9136H161.89V79.0497H176.675V89.8605H161.89V114.82L150.983 114.822ZM110.255 64.9141V54.0051H143.99V64.9136H132.576V115.118C128.935 115.215 125.298 115.327 121.669 115.465V64.9141H110.255ZM72.9668 118.608V54.0071H103.263V64.9146H83.8727V79.6899C88.3272 79.6324 94.6611 79.5677 98.6017 79.5769V90.3887C93.6691 90.3276 88.1011 90.4569 83.8727 90.4991V106.866C90.3312 106.354 96.7949 105.91 103.263 105.533V116.345C93.1524 116.931 83.0524 117.686 72.9668 118.609V118.608ZM51.5706 93.6169L51.57 54.0051H62.4774V119.628C58.4902 120.04 54.5101 120.479 50.5376 120.943L37.9068 84.4421V122.506C34.2641 122.983 30.6285 123.48 27 124V54.0061H37.3655L51.57 93.6169H51.5706ZM227.03 117.516V54.0061H237.937V118.422C234.306 118.096 230.671 117.796 227.03 117.516V117.516Z" fill="#DB202C"/>
</svg>
